<svg width="991" height="383" viewBox="0 0 991 383" fill="none" xmlns="http://www.w3.org/2000/svg">
<path d="M286.541 286.542C284.977 288.1 283.377 289.627 281.74 291.112C280.097 292.598 278.424 294.041 276.714 295.441C275.011 296.841 273.265 298.205 271.489 299.521C269.713 300.836 267.906 302.109 266.069 303.34C264.232 304.565 262.365 305.747 260.468 306.886C258.57 308.02 256.648 309.111 254.702 310.154C252.75 311.197 250.774 312.191 248.78 313.131C246.779 314.076 244.76 314.974 242.717 315.822C240.674 316.665 238.613 317.459 236.534 318.205C234.448 318.95 232.351 319.641 230.235 320.284C228.119 320.927 225.992 321.515 223.846 322.054C221.699 322.594 219.547 323.073 217.377 323.509C215.207 323.94 213.03 324.315 210.842 324.643C208.66 324.964 206.465 325.237 204.264 325.449C202.064 325.667 199.863 325.831 197.651 325.94C195.444 326.049 193.237 326.104 191.024 326.104C188.812 326.104 186.605 326.049 184.398 325.94C182.192 325.831 179.985 325.667 177.785 325.449C175.584 325.237 173.389 324.964 171.207 324.643C169.019 324.315 166.842 323.94 164.672 323.509C162.502 323.073 160.349 322.594 158.203 322.054C156.057 321.515 153.93 320.927 151.814 320.284C149.698 319.641 147.601 318.95 145.521 318.205C143.436 317.459 141.375 316.665 139.332 315.822C137.289 314.974 135.27 314.076 133.269 313.131C131.275 312.191 129.299 311.197 127.353 310.154C125.401 309.111 123.479 308.02 121.581 306.886C119.684 305.747 117.817 304.565 115.98 303.34C114.143 302.109 112.336 300.836 110.56 299.521C108.784 298.205 107.044 296.841 105.335 295.441C103.625 294.041 101.952 292.598 100.315 291.112C98.6722 289.627 97.0717 288.1 95.5137 286.542C93.9497 284.977 92.422 283.377 90.9367 281.74C89.4575 280.097 88.0087 278.424 86.6083 276.715C85.2079 275.011 83.8439 273.265 82.5284 271.489C81.2129 269.713 79.9398 267.906 78.7152 266.069C77.4846 264.232 76.3025 262.365 75.1627 260.468C74.0291 258.57 72.9379 256.649 71.8952 254.703C70.8586 252.751 69.8643 250.774 68.9186 248.78C67.9729 246.779 67.0757 244.761 66.233 242.718C65.3843 240.675 64.5902 238.613 63.8445 236.534C63.0989 234.449 62.4078 232.351 61.7652 230.235C61.1226 228.12 60.5345 225.992 59.995 223.846C59.4615 221.7 58.9765 219.548 58.5461 217.377C58.1096 215.207 57.7338 213.031 57.4125 210.842C57.0851 208.66 56.8123 206.465 56.6001 204.265C56.3819 202.064 56.2182 199.863 56.1091 197.651C56 195.444 55.9454 193.237 55.9454 191.025C55.9454 188.812 56 186.605 56.1091 184.399C56.2182 182.192 56.3819 179.985 56.6001 177.785C56.8123 175.584 57.0851 173.39 57.4125 171.207C57.7338 169.019 58.1096 166.842 58.5461 164.672C58.9765 162.502 59.4615 160.35 59.995 158.204C60.5345 156.058 61.1226 153.93 61.7652 151.814C62.4078 149.698 63.0989 147.601 63.8445 145.521C64.5902 143.436 65.3843 141.375 66.2331 139.332C67.0757 137.289 67.9729 135.27 68.9186 133.27C69.8644 131.275 70.8586 129.299 71.8952 127.353C72.9379 125.401 74.0291 123.479 75.1628 121.582C76.3025 119.684 77.4846 117.817 78.7152 115.98C79.9398 114.143 81.2129 112.337 82.5284 110.56C83.85 108.784 85.2079 107.044 86.6083 105.335C88.0087 103.625 89.4575 101.952 90.9367 100.315C92.422 98.6724 93.9497 97.072 95.5137 95.514C97.0717 93.9499 98.6722 92.4222 100.315 90.937C101.952 89.4578 103.625 88.0089 105.335 86.6085C107.044 85.2081 108.784 83.8441 110.56 82.5286C112.336 81.2131 114.143 79.94 115.98 78.7155C117.817 77.4848 119.684 76.3027 121.581 75.163C123.479 74.0293 125.401 72.9381 127.353 71.8954C129.299 70.8588 131.275 69.8646 133.269 68.9189C135.27 67.9732 137.289 67.0759 139.332 66.2333C141.375 65.3846 143.436 64.5904 145.521 63.8448C147.601 63.0991 149.698 62.408 151.814 61.7654C153.93 61.1228 156.057 60.5348 158.203 59.9952C160.349 59.4618 162.502 58.9768 164.672 58.5464C166.842 58.1099 169.019 57.734 171.207 57.4127C173.389 57.0854 175.584 56.8126 177.785 56.6004C179.985 56.3821 182.192 56.2185 184.398 56.1093C186.605 56.0002 188.812 55.9457 191.024 55.9457C193.237 55.9457 195.444 56.0002 197.651 56.1093C199.863 56.2185 202.064 56.3821 204.264 56.6004C206.465 56.8126 208.66 57.0854 210.842 57.4127C213.03 57.734 215.207 58.1099 217.377 58.5464C219.547 58.9768 221.699 59.4618 223.846 59.9952C225.992 60.5348 228.119 61.1228 230.235 61.7654C232.351 62.408 234.448 63.0991 236.534 63.8448C238.613 64.5904 240.674 65.3846 242.717 66.2333C244.76 67.0759 246.779 67.9732 248.78 68.9189C250.774 69.8646 252.75 70.8588 254.702 71.8954C256.648 72.9381 258.57 74.0293 260.468 75.163C262.365 76.3027 264.232 77.4848 266.069 78.7155C267.906 79.94 269.713 81.2131 271.489 82.5286C273.265 83.8441 275.011 85.2081 276.714 86.6085C278.424 88.0089 280.097 89.4578 281.74 90.937C283.377 92.4222 284.977 93.9499 286.541 95.514" stroke="white" stroke-width="29.0126" stroke-linecap="square"/>
<path d="M232.811 232.812C231.459 234.303 230.028 235.716 228.531 237.061C227.027 238.401 225.463 239.668 223.839 240.85C222.208 242.032 220.523 243.13 218.783 244.142C217.037 245.155 215.255 246.07 213.418 246.9C211.581 247.731 209.708 248.465 207.798 249.101C205.888 249.738 203.954 250.271 201.984 250.714C200.02 251.15 198.038 251.49 196.037 251.726C194.043 251.962 192.036 252.096 190.023 252.126C188.011 252.156 185.998 252.084 183.991 251.914C181.985 251.738 179.996 251.459 178.02 251.083C176.038 250.708 174.086 250.229 172.158 249.653C170.23 249.077 168.333 248.398 166.478 247.628C164.617 246.858 162.798 245.997 161.028 245.039C159.258 244.082 157.536 243.039 155.875 241.905C154.208 240.772 152.607 239.559 151.067 238.262C149.522 236.964 148.054 235.594 146.654 234.152C145.254 232.703 143.926 231.187 142.683 229.605C141.434 228.029 140.277 226.386 139.198 224.682C138.118 222.985 137.13 221.233 136.233 219.432C135.33 217.632 134.524 215.789 133.814 213.904C133.105 212.018 132.493 210.109 131.977 208.157C131.462 206.211 131.044 204.246 130.735 202.258C130.419 200.27 130.207 198.269 130.098 196.256C129.989 194.25 129.977 192.237 130.074 190.224C130.171 188.218 130.371 186.217 130.668 184.223C130.971 182.234 131.371 180.264 131.874 178.312C132.371 176.36 132.972 174.444 133.669 172.553C134.372 170.668 135.16 168.819 136.045 167.012C136.936 165.206 137.912 163.448 138.979 161.738C140.046 160.028 141.192 158.379 142.429 156.791C143.665 155.203 144.975 153.675 146.369 152.22C147.757 150.765 149.218 149.383 150.752 148.08C152.286 146.77 153.88 145.546 155.535 144.4C157.19 143.26 158.9 142.199 160.67 141.235C162.434 140.265 164.241 139.386 166.096 138.604C167.951 137.822 169.842 137.131 171.764 136.543C173.692 135.949 175.638 135.458 177.614 135.07C179.59 134.676 181.579 134.385 183.585 134.197C185.586 134.009 187.599 133.924 189.611 133.943C191.624 133.961 193.63 134.082 195.631 134.3C197.632 134.525 199.62 134.852 201.584 135.276C203.554 135.701 205.494 136.222 207.41 136.846C209.326 137.471 211.199 138.192 213.042 139.005C214.885 139.823 216.679 140.726 218.425 141.726C220.171 142.727 221.868 143.812 223.505 144.982C225.142 146.158 226.712 147.407 228.222 148.741C229.731 150.074 231.168 151.481 232.532 152.96C233.902 154.439 235.187 155.985 236.394 157.597" stroke="white" stroke-width="29.0126" stroke-linecap="square"/>
<path d="M319.072 234.152C315.829 234.152 313.355 233.256 311.648 231.464C309.941 229.672 309.088 227.155 309.088 223.912V151.72C309.088 148.477 309.941 146.003 311.648 144.296C313.355 142.504 315.829 141.608 319.072 141.608C322.229 141.608 324.661 142.504 326.368 144.296C328.075 146.003 328.928 148.477 328.928 151.72V182.056H329.184L363.232 146.472C364.683 144.936 366.176 143.784 367.712 143.016C369.333 142.163 371.168 141.736 373.216 141.736C376.203 141.736 378.336 142.504 379.616 144.04C380.981 145.576 381.579 147.368 381.408 149.416C381.237 151.464 380.299 153.384 378.592 155.176L344.416 190.12L344.544 181.544L380.384 219.816C382.347 221.949 383.328 224.125 383.328 226.344C383.413 228.563 382.688 230.44 381.152 231.976C379.701 233.427 377.525 234.152 374.624 234.152C372.149 234.152 370.144 233.64 368.608 232.616C367.157 231.592 365.536 230.099 363.744 228.136L329.184 191.784H328.928V223.912C328.928 227.155 328.075 229.672 326.368 231.464C324.747 233.256 322.315 234.152 319.072 234.152ZM422.455 234.408C414.86 234.408 409.186 232.317 405.431 228.136C401.676 223.869 399.799 217.555 399.799 209.192V151.464C399.799 148.221 400.61 145.789 402.231 144.168C403.938 142.461 406.37 141.608 409.527 141.608C412.599 141.608 414.946 142.461 416.567 144.168C418.274 145.789 419.127 148.221 419.127 151.464V208.424C419.127 211.923 419.852 214.525 421.303 216.232C422.839 217.853 424.844 218.664 427.319 218.664C428.002 218.664 428.642 218.621 429.239 218.536C429.836 218.451 430.476 218.408 431.159 218.408C432.524 218.237 433.463 218.664 433.975 219.688C434.572 220.627 434.871 222.547 434.871 225.448C434.871 228.008 434.359 229.971 433.335 231.336C432.311 232.616 430.732 233.469 428.599 233.896C427.746 233.981 426.764 234.067 425.655 234.152C424.546 234.323 423.479 234.408 422.455 234.408ZM465.592 234.408C460.301 234.408 455.907 233.427 452.408 231.464C448.909 229.501 446.307 226.557 444.6 222.632C442.979 218.621 442.168 213.672 442.168 207.784V178.856C442.168 175.613 442.979 173.181 444.6 171.56C446.307 169.939 448.696 169.128 451.768 169.128C454.84 169.128 457.229 169.939 458.936 171.56C460.643 173.181 461.496 175.613 461.496 178.856V208.296C461.496 212.051 462.264 214.867 463.8 216.744C465.336 218.536 467.768 219.432 471.096 219.432C474.765 219.432 477.752 218.152 480.056 215.592C482.445 212.947 483.64 209.491 483.64 205.224V178.856C483.64 175.613 484.451 173.181 486.072 171.56C487.779 169.939 490.168 169.128 493.24 169.128C496.397 169.128 498.787 169.939 500.408 171.56C502.115 173.181 502.968 175.613 502.968 178.856V224.296C502.968 230.867 499.853 234.152 493.624 234.152C490.552 234.152 488.205 233.299 486.584 231.592C484.963 229.885 484.152 227.453 484.152 224.296V215.72L486.072 220.712C484.195 225.064 481.507 228.435 478.008 230.824C474.509 233.213 470.371 234.408 465.592 234.408ZM556.708 234.408C551.673 234.408 547.193 233.171 543.268 230.696C539.428 228.136 536.868 224.765 535.588 220.584L536.996 216.36V224.296C536.996 227.453 536.185 229.885 534.564 231.592C532.943 233.299 530.596 234.152 527.524 234.152C524.452 234.152 522.063 233.299 520.356 231.592C518.735 229.885 517.924 227.453 517.924 224.296V151.464C517.924 148.221 518.735 145.789 520.356 144.168C522.063 142.461 524.495 141.608 527.652 141.608C530.724 141.608 533.071 142.461 534.692 144.168C536.399 145.789 537.252 148.221 537.252 151.464V181.8H535.716C537.081 177.96 539.684 174.845 543.524 172.456C547.364 170.067 551.759 168.872 556.708 168.872C562.255 168.872 567.076 170.195 571.172 172.84C575.268 175.485 578.468 179.24 580.772 184.104C583.076 188.968 584.228 194.771 584.228 201.512C584.228 208.253 583.076 214.099 580.772 219.048C578.468 223.997 575.225 227.795 571.044 230.44C566.948 233.085 562.169 234.408 556.708 234.408ZM550.948 219.944C553.679 219.944 556.068 219.261 558.116 217.896C560.249 216.531 561.871 214.525 562.98 211.88C564.175 209.149 564.772 205.693 564.772 201.512C564.772 195.283 563.492 190.717 560.932 187.816C558.372 184.829 555.044 183.336 550.948 183.336C548.217 183.336 545.785 183.976 543.652 185.256C541.604 186.536 539.983 188.541 538.788 191.272C537.593 193.917 536.996 197.331 536.996 201.512C536.996 207.741 538.276 212.392 540.836 215.464C543.396 218.451 546.767 219.944 550.948 219.944ZM628.689 234.408C621.265 234.408 614.865 233.085 609.489 230.44C604.198 227.709 600.102 223.912 597.201 219.048C594.385 214.099 592.977 208.296 592.977 201.64C592.977 195.155 594.342 189.48 597.073 184.616C599.804 179.667 603.601 175.827 608.465 173.096C613.414 170.28 619.004 168.872 625.233 168.872C629.756 168.872 633.852 169.64 637.521 171.176C641.19 172.627 644.348 174.76 646.993 177.576C649.638 180.307 651.644 183.677 653.009 187.688C654.374 191.613 655.057 196.008 655.057 200.872C655.057 202.493 654.545 203.731 653.521 204.584C652.497 205.352 651.004 205.736 649.041 205.736H608.849V195.752H641.105L639.057 197.544C639.057 194.045 638.545 191.144 637.521 188.84C636.497 186.451 635.004 184.659 633.041 183.464C631.164 182.269 628.817 181.672 626.001 181.672C622.844 181.672 620.156 182.397 617.937 183.848C615.718 185.299 614.012 187.389 612.817 190.12C611.622 192.851 611.025 196.136 611.025 199.976V201C611.025 207.485 612.518 212.264 615.505 215.336C618.577 218.408 623.1 219.944 629.073 219.944C631.121 219.944 633.468 219.688 636.113 219.176C638.758 218.664 641.233 217.853 643.537 216.744C645.5 215.805 647.249 215.507 648.785 215.848C650.321 216.104 651.516 216.787 652.369 217.896C653.222 219.005 653.692 220.285 653.777 221.736C653.948 223.187 653.649 224.637 652.881 226.088C652.113 227.453 650.833 228.605 649.041 229.544C646.14 231.165 642.854 232.36 639.185 233.128C635.601 233.981 632.102 234.408 628.689 234.408ZM747.489 234.408C737.761 234.408 729.441 232.488 722.529 228.648C715.617 224.808 710.284 219.432 706.529 212.52C702.86 205.523 701.025 197.288 701.025 187.816C701.025 180.733 702.049 174.376 704.097 168.744C706.23 163.027 709.302 158.163 713.313 154.152C717.324 150.056 722.188 146.899 727.905 144.68C733.708 142.461 740.236 141.352 747.489 141.352C751.756 141.352 756.065 141.907 760.417 143.016C764.854 144.04 768.694 145.533 771.937 147.496C774.07 148.691 775.521 150.184 776.289 151.976C777.057 153.768 777.27 155.56 776.929 157.352C776.673 159.144 775.948 160.68 774.753 161.96C773.644 163.24 772.236 164.051 770.529 164.392C768.822 164.733 766.902 164.349 764.769 163.24C762.209 161.704 759.521 160.595 756.705 159.912C753.889 159.229 751.03 158.888 748.129 158.888C742.412 158.888 737.59 160.04 733.665 162.344C729.825 164.563 726.924 167.805 724.961 172.072C722.998 176.339 722.017 181.587 722.017 187.816C722.017 193.96 722.998 199.208 724.961 203.56C726.924 207.912 729.825 211.24 733.665 213.544C737.59 215.763 742.412 216.872 748.129 216.872C750.86 216.872 753.633 216.531 756.449 215.848C759.35 215.165 762.124 214.099 764.769 212.648C766.988 211.539 768.95 211.155 770.657 211.496C772.449 211.752 773.9 212.52 775.009 213.8C776.204 214.995 776.929 216.445 777.185 218.152C777.526 219.859 777.356 221.565 776.673 223.272C775.99 224.979 774.71 226.429 772.833 227.624C769.676 229.757 765.793 231.421 761.185 232.616C756.577 233.811 752.012 234.408 747.489 234.408ZM808.422 234.408C803.814 234.408 799.675 233.512 796.006 231.72C792.337 229.928 789.478 227.496 787.43 224.424C785.382 221.352 784.358 217.896 784.358 214.056C784.358 209.448 785.553 205.821 787.942 203.176C790.331 200.445 794.214 198.525 799.59 197.416C804.966 196.221 812.091 195.624 820.966 195.624H827.75V205.608H821.094C816.742 205.608 813.201 205.864 810.47 206.376C807.825 206.803 805.905 207.571 804.71 208.68C803.601 209.789 803.046 211.325 803.046 213.288C803.046 215.677 803.857 217.64 805.478 219.176C807.185 220.712 809.617 221.48 812.774 221.48C815.249 221.48 817.425 220.925 819.302 219.816C821.265 218.621 822.801 217.043 823.91 215.08C825.019 213.032 825.574 210.728 825.574 208.168V193.448C825.574 189.693 824.721 187.048 823.014 185.512C821.307 183.891 818.406 183.08 814.31 183.08C812.006 183.08 809.489 183.379 806.758 183.976C804.113 184.488 801.169 185.384 797.926 186.664C796.049 187.517 794.385 187.731 792.934 187.304C791.483 186.792 790.374 185.939 789.606 184.744C788.838 183.464 788.454 182.099 788.454 180.648C788.454 179.112 788.881 177.661 789.734 176.296C790.587 174.845 791.995 173.779 793.958 173.096C797.969 171.475 801.723 170.365 805.222 169.768C808.806 169.171 812.091 168.872 815.078 168.872C821.649 168.872 827.025 169.853 831.206 171.816C835.473 173.693 838.673 176.637 840.806 180.648C842.939 184.573 844.006 189.651 844.006 195.88V224.296C844.006 227.453 843.238 229.885 841.702 231.592C840.166 233.299 837.947 234.152 835.046 234.152C832.145 234.152 829.883 233.299 828.262 231.592C826.726 229.885 825.958 227.453 825.958 224.296V219.56L826.854 220.328C826.342 223.229 825.233 225.747 823.526 227.88C821.905 229.928 819.814 231.549 817.254 232.744C814.694 233.853 811.75 234.408 808.422 234.408ZM882.488 234.408C878.733 234.408 874.851 234.067 870.84 233.384C866.915 232.701 863.331 231.549 860.088 229.928C858.381 229.075 857.144 228.008 856.376 226.728C855.693 225.363 855.395 223.997 855.48 222.632C855.565 221.267 855.992 220.029 856.76 218.92C857.613 217.811 858.68 217.085 859.96 216.744C861.325 216.317 862.819 216.445 864.44 217.128C867.939 218.579 871.139 219.603 874.04 220.2C876.941 220.797 879.8 221.096 882.616 221.096C886.285 221.096 888.931 220.541 890.552 219.432C892.259 218.237 893.112 216.701 893.112 214.824C893.112 213.117 892.557 211.837 891.448 210.984C890.339 210.131 888.717 209.533 886.584 209.192L873.144 206.76C867.853 205.821 863.757 203.901 860.856 201C858.04 198.013 856.632 194.216 856.632 189.608C856.632 185.341 857.827 181.672 860.216 178.6C862.605 175.443 865.891 173.053 870.072 171.432C874.339 169.725 879.16 168.872 884.536 168.872C888.376 168.872 891.917 169.213 895.16 169.896C898.403 170.579 901.517 171.688 904.504 173.224C906.04 173.992 907.107 175.016 907.704 176.296C908.387 177.576 908.6 178.899 908.344 180.264C908.173 181.629 907.661 182.867 906.808 183.976C905.955 185.085 904.845 185.811 903.48 186.152C902.2 186.493 900.707 186.323 899 185.64C896.269 184.36 893.752 183.464 891.448 182.952C889.144 182.355 886.925 182.056 884.792 182.056C880.952 182.056 878.179 182.696 876.472 183.976C874.765 185.171 873.912 186.707 873.912 188.584C873.912 190.035 874.381 191.272 875.32 192.296C876.344 193.235 877.88 193.875 879.928 194.216L893.368 196.648C898.915 197.587 903.139 199.464 906.04 202.28C908.941 205.011 910.392 208.765 910.392 213.544C910.392 220.029 907.832 225.149 902.712 228.904C897.677 232.573 890.936 234.408 882.488 234.408ZM931.152 234.152C927.995 234.152 925.563 233.299 923.856 231.592C922.235 229.885 921.424 227.453 921.424 224.296V151.464C921.424 148.221 922.235 145.789 923.856 144.168C925.563 142.461 927.995 141.608 931.152 141.608C934.224 141.608 936.571 142.461 938.192 144.168C939.899 145.789 940.752 148.221 940.752 151.464V181.928H938.96C940.923 177.747 943.824 174.547 947.664 172.328C951.589 170.024 956.027 168.872 960.976 168.872C966.011 168.872 970.149 169.853 973.392 171.816C976.635 173.693 979.067 176.595 980.688 180.52C982.309 184.36 983.12 189.267 983.12 195.24V224.296C983.12 227.453 982.267 229.885 980.56 231.592C978.939 233.299 976.549 234.152 973.392 234.152C970.32 234.152 967.931 233.299 966.224 231.592C964.603 229.885 963.792 227.453 963.792 224.296V196.136C963.792 191.784 962.981 188.669 961.36 186.792C959.824 184.829 957.435 183.848 954.192 183.848C950.096 183.848 946.811 185.128 944.336 187.688C941.947 190.248 940.752 193.661 940.752 197.928V224.296C940.752 230.867 937.552 234.152 931.152 234.152Z" fill="white"/>
</svg>
