<svg xmlns="http://www.w3.org/2000/svg" xmlns:xlink="http://www.w3.org/1999/xlink" width="500" zoomAndPan="magnify" viewBox="0 0 375 374.999991" height="500" preserveAspectRatio="xMidYMid meet" version="1.0"><defs><g/><clipPath id="f609c7e304"><path d="M 53.613281 147.1875 L 134.613281 147.1875 L 134.613281 228.1875 L 53.613281 228.1875 Z M 53.613281 147.1875 " clip-rule="nonzero"/></clipPath></defs><g fill="#ffffff" fill-opacity="1"><g transform="translate(125.651833, 196.459897)"><g><path d="M 19.0625 0 L 11.84375 -11.21875 L 8.1875 -6.90625 L 8.1875 0 L 2.5625 0 L 2.5625 -25.734375 L 8.1875 -25.734375 L 8.1875 -14.09375 L 17.953125 -25.734375 L 24.234375 -25.734375 L 15.515625 -15.546875 L 25.484375 0 Z M 19.0625 0 "/></g></g></g><g fill="#ffffff" fill-opacity="1"><g transform="translate(151.520658, 196.459897)"><g><path d="M 7.75 0.0625 C 6.5625 0.0625 5.566406 -0.113281 4.765625 -0.46875 C 3.972656 -0.820312 3.375 -1.429688 2.96875 -2.296875 C 2.5625 -3.171875 2.359375 -4.382812 2.359375 -5.9375 L 2.359375 -26.9375 L 7.78125 -26.9375 L 7.78125 -6.59375 C 7.78125 -5.8125 7.898438 -5.273438 8.140625 -4.984375 C 8.378906 -4.691406 8.90625 -4.546875 9.71875 -4.546875 C 9.769531 -4.546875 9.867188 -4.546875 10.015625 -4.546875 C 10.160156 -4.546875 10.28125 -4.546875 10.375 -4.546875 L 10.375 -0.0625 C 10.144531 -0.0390625 9.785156 -0.015625 9.296875 0.015625 C 8.816406 0.046875 8.300781 0.0625 7.75 0.0625 Z M 7.75 0.0625 "/></g></g></g><g fill="#ffffff" fill-opacity="1"><g transform="translate(162.666769, 196.459897)"><g><path d="M 11.421875 0.3125 C 8.921875 0.3125 6.992188 -0.0078125 5.640625 -0.65625 C 4.285156 -1.300781 3.347656 -2.316406 2.828125 -3.703125 C 2.304688 -5.097656 2.046875 -6.921875 2.046875 -9.171875 L 2.046875 -19.65625 L 7.5 -19.65625 L 7.5 -9.0625 C 7.5 -8.15625 7.554688 -7.347656 7.671875 -6.640625 C 7.785156 -5.941406 8.117188 -5.394531 8.671875 -5 C 9.234375 -4.601562 10.160156 -4.40625 11.453125 -4.40625 C 12.753906 -4.40625 13.675781 -4.609375 14.21875 -5.015625 C 14.757812 -5.421875 15.085938 -5.976562 15.203125 -6.6875 C 15.316406 -7.394531 15.375 -8.195312 15.375 -9.09375 L 15.375 -19.65625 L 20.734375 -19.65625 L 20.734375 -9.203125 C 20.734375 -6.953125 20.476562 -5.125 19.96875 -3.71875 C 19.457031 -2.320312 18.53125 -1.300781 17.1875 -0.65625 C 15.84375 -0.0078125 13.921875 0.3125 11.421875 0.3125 Z M 11.421875 0.3125 "/></g></g></g><g fill="#ffffff" fill-opacity="1"><g transform="translate(185.445248, 196.459897)"><g><path d="M 13.671875 0.3125 C 11.796875 0.3125 10.328125 0.132812 9.265625 -0.21875 C 8.203125 -0.582031 7.40625 -1.078125 6.875 -1.703125 L 5.796875 0.203125 L 2.15625 -0.171875 L 2.15625 -26.9375 L 7.5625 -26.9375 L 7.5625 -18.234375 C 8.65625 -19.484375 10.796875 -20.109375 13.984375 -20.109375 C 15.679688 -20.109375 17.078125 -19.835938 18.171875 -19.296875 C 19.273438 -18.765625 20.132812 -18.03125 20.75 -17.09375 C 21.363281 -16.15625 21.796875 -15.066406 22.046875 -13.828125 C 22.296875 -12.597656 22.421875 -11.273438 22.421875 -9.859375 C 22.421875 -8.453125 22.285156 -7.132812 22.015625 -5.90625 C 21.753906 -4.675781 21.300781 -3.59375 20.65625 -2.65625 C 20.007812 -1.71875 19.117188 -0.988281 17.984375 -0.46875 C 16.847656 0.0507812 15.410156 0.3125 13.671875 0.3125 Z M 12.640625 -4.265625 C 13.816406 -4.265625 14.710938 -4.492188 15.328125 -4.953125 C 15.941406 -5.421875 16.359375 -6.0625 16.578125 -6.875 C 16.796875 -7.6875 16.90625 -8.613281 16.90625 -9.65625 C 16.90625 -10.71875 16.796875 -11.660156 16.578125 -12.484375 C 16.359375 -13.304688 15.945312 -13.953125 15.34375 -14.421875 C 14.738281 -14.898438 13.835938 -15.140625 12.640625 -15.140625 C 10.765625 -15.140625 9.457031 -14.691406 8.71875 -13.796875 C 7.976562 -12.910156 7.609375 -11.53125 7.609375 -9.65625 C 7.609375 -7.78125 7.953125 -6.410156 8.640625 -5.546875 C 9.335938 -4.691406 10.671875 -4.265625 12.640625 -4.265625 Z M 12.640625 -4.265625 "/></g></g></g><g fill="#ffffff" fill-opacity="1"><g transform="translate(209.091806, 196.459897)"><g><path d="M 11.453125 0.375 C 9.328125 0.375 7.59375 0.109375 6.25 -0.421875 C 4.90625 -0.953125 3.867188 -1.691406 3.140625 -2.640625 C 2.410156 -3.585938 1.90625 -4.679688 1.625 -5.921875 C 1.351562 -7.160156 1.21875 -8.472656 1.21875 -9.859375 C 1.21875 -11.222656 1.359375 -12.523438 1.640625 -13.765625 C 1.929688 -15.003906 2.441406 -16.097656 3.171875 -17.046875 C 3.898438 -17.992188 4.929688 -18.738281 6.265625 -19.28125 C 7.597656 -19.832031 9.316406 -20.109375 11.421875 -20.109375 C 13.578125 -20.109375 15.257812 -19.773438 16.46875 -19.109375 C 17.6875 -18.453125 18.5625 -17.550781 19.09375 -16.40625 C 19.625 -15.257812 19.945312 -13.941406 20.0625 -12.453125 C 20.175781 -10.972656 20.210938 -9.414062 20.171875 -7.78125 L 6.5 -7.78125 C 6.65625 -6.59375 7.078125 -5.671875 7.765625 -5.015625 C 8.460938 -4.359375 9.691406 -4.03125 11.453125 -4.03125 C 12.960938 -4.03125 14.191406 -4.195312 15.140625 -4.53125 C 16.085938 -4.863281 16.921875 -5.296875 17.640625 -5.828125 L 20.375 -2.296875 C 19.101562 -1.347656 17.785156 -0.664062 16.421875 -0.25 C 15.054688 0.164062 13.398438 0.375 11.453125 0.375 Z M 11.25 -15.546875 C 9.5625 -15.546875 8.378906 -15.195312 7.703125 -14.5 C 7.035156 -13.8125 6.632812 -12.867188 6.5 -11.671875 L 15.203125 -11.671875 C 15.160156 -12.429688 15.046875 -13.097656 14.859375 -13.671875 C 14.671875 -14.253906 14.304688 -14.710938 13.765625 -15.046875 C 13.222656 -15.378906 12.382812 -15.546875 11.25 -15.546875 Z M 11.25 -15.546875 "/></g></g></g><g fill="#ffffff" fill-opacity="1"><g transform="translate(230.585531, 196.459897)"><g><path d="M 14.40625 0.375 C 11.207031 0.375 8.632812 -0.132812 6.6875 -1.15625 C 4.75 -2.1875 3.347656 -3.6875 2.484375 -5.65625 C 1.617188 -7.625 1.1875 -10.03125 1.1875 -12.875 C 1.1875 -15.957031 1.722656 -18.472656 2.796875 -20.421875 C 3.867188 -22.378906 5.414062 -23.820312 7.4375 -24.75 C 9.46875 -25.675781 11.90625 -26.140625 14.75 -26.140625 C 17.09375 -26.140625 19.0625 -25.828125 20.65625 -25.203125 C 22.25 -24.578125 23.648438 -23.648438 24.859375 -22.421875 L 20.9375 -18.5 C 20.144531 -19.269531 19.265625 -19.867188 18.296875 -20.296875 C 17.328125 -20.722656 16.132812 -20.9375 14.71875 -20.9375 C 11.988281 -20.9375 10.003906 -20.253906 8.765625 -18.890625 C 7.523438 -17.523438 6.90625 -15.5 6.90625 -12.8125 C 6.90625 -11.09375 7.148438 -9.625 7.640625 -8.40625 C 8.128906 -7.195312 8.941406 -6.273438 10.078125 -5.640625 C 11.222656 -5.003906 12.78125 -4.6875 14.75 -4.6875 C 15.863281 -4.6875 16.804688 -4.800781 17.578125 -5.03125 C 18.359375 -5.257812 19.035156 -5.570312 19.609375 -5.96875 C 20.191406 -6.363281 20.75 -6.804688 21.28125 -7.296875 L 25.03125 -3.609375 C 24.363281 -2.910156 23.570312 -2.253906 22.65625 -1.640625 C 21.738281 -1.035156 20.617188 -0.546875 19.296875 -0.171875 C 17.984375 0.191406 16.351562 0.375 14.40625 0.375 Z M 14.40625 0.375 "/></g></g></g><g fill="#ffffff" fill-opacity="1"><g transform="translate(256.593247, 196.459897)"><g><path d="M 8.265625 0.3125 C 6.253906 0.3125 4.710938 0.046875 3.640625 -0.484375 C 2.578125 -1.015625 1.847656 -1.742188 1.453125 -2.671875 C 1.066406 -3.597656 0.875 -4.628906 0.875 -5.765625 C 0.875 -7.617188 1.316406 -9.039062 2.203125 -10.03125 C 3.097656 -11.03125 4.472656 -11.710938 6.328125 -12.078125 C 8.191406 -12.453125 10.570312 -12.640625 13.46875 -12.640625 L 14.265625 -12.640625 C 14.265625 -13.242188 14.171875 -13.738281 13.984375 -14.125 C 13.804688 -14.519531 13.441406 -14.816406 12.890625 -15.015625 C 12.347656 -15.210938 11.507812 -15.3125 10.375 -15.3125 C 9.175781 -15.3125 8.078125 -15.132812 7.078125 -14.78125 C 6.085938 -14.4375 5.289062 -14.082031 4.6875 -13.71875 L 1.984375 -17.703125 C 2.441406 -18.023438 3.113281 -18.367188 4 -18.734375 C 4.894531 -19.109375 5.9375 -19.429688 7.125 -19.703125 C 8.320312 -19.972656 9.601562 -20.109375 10.96875 -20.109375 C 13.332031 -20.109375 15.125 -19.835938 16.34375 -19.296875 C 17.570312 -18.765625 18.40625 -17.925781 18.84375 -16.78125 C 19.289062 -15.632812 19.515625 -14.140625 19.515625 -12.296875 L 19.515625 -6.3125 C 19.515625 -5.53125 19.597656 -5.035156 19.765625 -4.828125 C 19.941406 -4.617188 20.425781 -4.515625 21.21875 -4.515625 L 21.21875 -0.0625 C 20.863281 0.0195312 20.097656 0.0625 18.921875 0.0625 C 17.878906 0.0625 17.09375 -0.0664062 16.5625 -0.328125 C 16.03125 -0.597656 15.566406 -1.113281 15.171875 -1.875 C 14.660156 -1.207031 13.84375 -0.675781 12.71875 -0.28125 C 11.601562 0.113281 10.117188 0.3125 8.265625 0.3125 Z M 9.34375 -4.0625 C 11.050781 -4.0625 12.296875 -4.382812 13.078125 -5.03125 C 13.867188 -5.675781 14.265625 -6.71875 14.265625 -8.15625 L 14.265625 -8.890625 L 13.8125 -8.890625 C 12.082031 -8.890625 10.695312 -8.847656 9.65625 -8.765625 C 8.613281 -8.679688 7.835938 -8.539062 7.328125 -8.34375 C 6.816406 -8.15625 6.472656 -7.882812 6.296875 -7.53125 C 6.128906 -7.1875 6.046875 -6.75 6.046875 -6.21875 C 6.046875 -5.5 6.28125 -4.957031 6.75 -4.59375 C 7.226562 -4.238281 8.09375 -4.0625 9.34375 -4.0625 Z M 9.34375 -4.0625 "/></g></g></g><g fill="#ffffff" fill-opacity="1"><g transform="translate(278.468894, 196.459897)"><g><path d="M 9.71875 0.3125 C 8.03125 0.3125 6.375 0.125 4.75 -0.25 C 3.132812 -0.632812 1.664062 -1.269531 0.34375 -2.15625 L 3.125 -6.140625 C 4.144531 -5.492188 5.28125 -4.988281 6.53125 -4.625 C 7.78125 -4.269531 8.957031 -4.09375 10.0625 -4.09375 C 11.425781 -4.09375 12.359375 -4.195312 12.859375 -4.40625 C 13.359375 -4.613281 13.609375 -5.054688 13.609375 -5.734375 C 13.609375 -6.304688 13.363281 -6.695312 12.875 -6.90625 C 12.394531 -7.113281 11.484375 -7.300781 10.140625 -7.46875 C 8.929688 -7.625 7.804688 -7.8125 6.765625 -8.03125 C 5.722656 -8.257812 4.804688 -8.59375 4.015625 -9.03125 C 3.234375 -9.46875 2.628906 -10.078125 2.203125 -10.859375 C 1.773438 -11.648438 1.5625 -12.679688 1.5625 -13.953125 C 1.5625 -15.941406 2.210938 -17.460938 3.515625 -18.515625 C 4.828125 -19.578125 7.035156 -20.109375 10.140625 -20.109375 C 11.710938 -20.109375 13.226562 -19.957031 14.6875 -19.65625 C 16.144531 -19.351562 17.394531 -18.898438 18.4375 -18.296875 L 15.828125 -14.0625 C 15.140625 -14.425781 14.296875 -14.726562 13.296875 -14.96875 C 12.296875 -15.21875 11.300781 -15.34375 10.3125 -15.34375 C 8.925781 -15.34375 8.023438 -15.21875 7.609375 -14.96875 C 7.191406 -14.726562 6.984375 -14.378906 6.984375 -13.921875 C 6.984375 -13.367188 7.203125 -12.992188 7.640625 -12.796875 C 8.078125 -12.597656 8.929688 -12.40625 10.203125 -12.21875 C 11.453125 -12.0625 12.609375 -11.867188 13.671875 -11.640625 C 14.742188 -11.421875 15.664062 -11.109375 16.4375 -10.703125 C 17.21875 -10.304688 17.828125 -9.734375 18.265625 -8.984375 C 18.703125 -8.242188 18.921875 -7.265625 18.921875 -6.046875 C 18.921875 -4.535156 18.625 -3.3125 18.03125 -2.375 C 17.445312 -1.4375 16.484375 -0.753906 15.140625 -0.328125 C 13.796875 0.0976562 11.988281 0.3125 9.71875 0.3125 Z M 9.71875 0.3125 "/></g></g></g><g fill="#ffffff" fill-opacity="1"><g transform="translate(298.365352, 196.459897)"><g><path d="M 2.15625 0 L 2.15625 -26.9375 L 7.5625 -26.9375 L 7.5625 -18.328125 C 7.957031 -18.765625 8.65625 -19.171875 9.65625 -19.546875 C 10.664062 -19.921875 12.097656 -20.109375 13.953125 -20.109375 C 15.941406 -20.109375 17.441406 -19.765625 18.453125 -19.078125 C 19.460938 -18.390625 20.140625 -17.429688 20.484375 -16.203125 C 20.828125 -14.984375 21 -13.550781 21 -11.90625 L 21 0 L 15.59375 0 L 15.59375 -10.828125 C 15.59375 -11.640625 15.519531 -12.351562 15.375 -12.96875 C 15.238281 -13.582031 14.921875 -14.066406 14.421875 -14.421875 C 13.921875 -14.785156 13.117188 -14.96875 12.015625 -14.96875 C 10.765625 -14.96875 9.820312 -14.78125 9.1875 -14.40625 C 8.550781 -14.039062 8.128906 -13.53125 7.921875 -12.875 C 7.710938 -12.226562 7.609375 -11.46875 7.609375 -10.59375 L 7.609375 0 Z M 2.15625 0 "/></g></g></g><g clip-path="url(#f609c7e304)"><path stroke-linecap="square" transform="matrix(0.286378, 0.286378, -0.286378, 0.286378, 94.115214, 130.411837)" fill="none" stroke-linejoin="miter" d="M 180.003124 99.996586 C 179.996304 102.62232 179.866723 105.234414 179.614379 107.846509 C 179.355216 110.451783 178.973291 113.043416 178.468604 115.60777 C 177.950278 118.172123 177.316009 120.716017 176.552159 123.22581 C 175.795129 125.728782 174.915338 128.190834 173.912785 130.611966 C 172.910232 133.033098 171.784917 135.399669 170.550481 137.711679 C 169.316045 140.023689 167.972487 142.267498 166.519808 144.443107 C 165.060309 146.625535 163.505329 148.726123 161.834407 150.751689 C 160.177125 152.777256 158.417542 154.714161 156.562478 156.569225 C 154.714234 158.417469 152.777329 160.177052 150.751762 161.834334 C 148.726196 163.505256 146.625608 165.060236 144.44318 166.519735 C 142.267571 167.972414 140.023762 169.315972 137.711752 170.550408 C 135.399741 171.784844 133.033171 172.910159 130.612039 173.912712 C 128.190907 174.915265 125.728855 175.795057 123.225882 176.552086 C 120.71609 177.315936 118.172196 177.950205 115.607843 178.468532 C 113.043489 178.973218 110.451855 179.355143 107.846581 179.614307 C 105.234487 179.86665 102.622393 179.996231 99.996659 180.003052 C 97.377745 180.003052 94.76565 179.87347 92.160376 179.614307 C 89.555102 179.355143 86.963468 178.973218 84.392295 178.461711 C 81.821121 177.950205 79.290868 177.315936 76.774255 176.558907 C 74.264462 175.795057 71.80241 174.915265 69.381279 173.912712 C 66.966967 172.903339 64.600396 171.791664 62.288386 170.557228 C 59.976376 169.322792 57.732566 167.979234 55.550138 166.519735 C 53.374529 165.067056 51.273942 163.498436 49.248376 161.841154 C 47.222809 160.183873 45.285904 158.42429 43.43084 156.569225 C 41.575775 154.714161 39.816192 152.777256 38.158911 150.751689 C 36.501629 148.726123 34.933008 146.625535 33.480329 144.449927 C 32.02083 142.267498 30.677273 140.023689 29.442837 137.711679 C 28.208401 135.399669 27.096726 133.033098 26.087353 130.618786 C 25.0848 128.197655 24.205008 125.735602 23.441158 123.22581 C 22.684128 120.709197 22.04986 118.178944 21.538353 115.60777 C 21.026847 113.036596 20.644922 110.444963 20.385758 107.839688 C 20.126595 105.234414 19.997013 102.62232 19.997013 100.003406 C 20.003833 97.377672 20.133415 94.765578 20.385758 92.153483 C 20.644922 89.548209 21.026847 86.956576 21.531533 84.392222 C 22.04986 81.827869 22.684128 79.283975 23.447978 76.774182 C 24.205008 74.27121 25.0848 71.809158 26.087353 69.388026 C 27.089906 66.966894 28.215221 64.600323 29.449657 62.288313 C 30.684093 59.976303 32.02765 57.732494 33.480329 55.556885 C 34.939829 53.374457 36.494809 51.273869 38.165731 49.248303 C 39.823012 47.222736 41.582595 45.285831 43.43084 43.437587 C 45.285904 41.582523 47.222809 39.82294 49.248376 38.165658 C 51.273942 36.494736 53.374529 34.939756 55.556958 33.480257 C 57.732566 32.027578 59.976376 30.68402 62.288386 29.449584 C 64.600396 28.215148 66.966967 27.089833 69.388099 26.08728 C 71.80923 25.084727 74.271283 24.204935 76.774255 23.447906 C 79.284048 22.684056 81.827941 22.049787 84.392295 21.53146 C 86.956648 21.026774 89.548282 20.644849 92.153556 20.385685 C 94.76565 20.133342 97.377745 20.003761 100.003479 19.99694 " stroke="#f86f21" stroke-width="20" stroke-opacity="1" stroke-miterlimit="4"/><path stroke-linecap="square" transform="matrix(0.286378, 0.286378, -0.286378, 0.286378, 94.115214, 130.411837)" fill="none" stroke-linejoin="miter" d="M 134.997356 100.003406 C 135.051917 101.190102 135.051917 102.376797 134.983716 103.577133 C 134.915515 104.763828 134.792754 105.950524 134.608611 107.130399 C 134.417649 108.303455 134.178946 109.46969 133.872042 110.622285 C 133.565137 111.77488 133.196853 112.907015 132.780827 114.018689 C 132.357982 115.137184 131.880575 116.228398 131.348609 117.292332 C 130.809821 118.363086 130.223294 119.39974 129.589026 120.402293 C 128.947937 121.411666 128.259108 122.386939 127.522539 123.314471 C 126.785969 124.255643 126.001659 125.149075 125.169608 126.008406 C 124.337557 126.867737 123.464585 127.672508 122.557514 128.443178 C 121.643622 129.207028 120.688809 129.929957 119.706716 130.598326 C 118.717803 131.273515 117.69479 131.887323 116.651316 132.45339 C 115.607843 133.019458 114.523449 133.530964 113.425414 133.98791 C 112.32056 134.438036 111.195245 134.840421 110.06311 135.181426 C 108.917335 135.52243 107.75792 135.808874 106.584865 136.027117 C 105.41863 136.25218 104.231934 136.415862 103.052059 136.518163 C 101.858543 136.620465 100.671848 136.661385 99.478332 136.640925 C 98.284816 136.620465 97.098121 136.538624 95.911425 136.402222 C 94.73155 136.259 93.551675 136.061217 92.392259 135.802054 C 91.226024 135.53607 90.080249 135.222346 88.948114 134.840421 C 87.8228 134.465316 86.711125 134.035651 85.626731 133.537784 C 84.535517 133.046738 83.478403 132.507951 82.448569 131.900963 C 81.418736 131.307615 80.423003 130.652887 79.45455 129.957238 C 78.492918 129.254768 77.565386 128.504559 76.671954 127.706608 C 75.785342 126.915478 74.939651 126.069787 74.141701 125.189995 C 73.33693 124.303384 72.586721 123.389492 71.870611 122.427859 C 71.168142 121.466227 70.506593 120.477314 69.899605 119.44748 C 69.299438 118.424467 68.74701 117.367353 68.249144 116.282959 C 67.751277 115.198565 67.301151 114.09371 66.919226 112.961575 C 66.530481 111.836261 66.203117 110.690486 65.943954 109.531071 C 65.67115 108.371655 65.459727 107.19178 65.316506 106.011905 C 65.159643 104.832029 65.077802 103.645334 65.043702 102.451818 C 65.023242 101.258302 65.050522 100.071607 65.152823 98.878091 C 65.248305 97.691396 65.391527 96.51152 65.609769 95.338465 C 65.828012 94.16541 66.100816 93.005995 66.435 91.86704 C 66.769185 90.714445 67.15793 89.58913 67.608055 88.484275 C 68.058181 87.379421 68.562868 86.301847 69.115295 85.244733 C 69.674542 84.194439 70.288351 83.171426 70.949899 82.182513 C 71.611448 81.1936 72.327557 80.231968 73.091407 79.318076 C 73.848437 78.397364 74.653208 77.524392 75.505719 76.685521 C 76.35141 75.85347 77.244841 75.05552 78.172374 74.31895 C 79.106726 73.575561 80.068358 72.873091 81.077732 72.232003 C 82.080285 71.584095 83.110118 70.990747 84.174052 70.44514 C 85.237986 69.913173 86.32238 69.428946 87.434055 68.999281 C 88.552549 68.562795 89.684684 68.19451 90.830459 67.880786 C 91.976234 67.567062 93.142469 67.314719 94.322345 67.116936 C 95.4954 66.925974 96.682095 66.789572 97.875611 66.714551 C 99.055486 66.63953 100.255822 66.62589 101.442518 66.680451 C 102.629213 66.721371 103.815909 66.830492 104.995784 67.000995 " stroke="#f86f21" stroke-width="20" stroke-opacity="1" stroke-miterlimit="4"/><path stroke-linecap="square" transform="matrix(0.286378, 0.286378, -0.286378, 0.286378, 94.115214, 130.411837)" fill="none" stroke-linejoin="miter" d="M 180.003124 99.996586 C 179.996304 102.62232 179.866723 105.234414 179.614379 107.846509 C 179.355216 110.451783 178.973291 113.043416 178.468604 115.60777 C 177.950278 118.172123 177.316009 120.716017 176.552159 123.22581 C 175.795129 125.728782 174.915338 128.190834 173.912785 130.611966 C 172.910232 133.033098 171.784917 135.399669 170.550481 137.711679 C 169.316045 140.023689 167.972487 142.267498 166.519808 144.443107 C 165.060309 146.625535 163.505329 148.726123 161.834407 150.751689 C 160.177125 152.777256 158.417542 154.714161 156.562478 156.569225 C 154.714234 158.417469 152.777329 160.177052 150.751762 161.834334 C 148.726196 163.505256 146.625608 165.060236 144.44318 166.519735 C 142.267571 167.972414 140.023762 169.315972 137.711752 170.550408 C 135.399741 171.784844 133.033171 172.910159 130.612039 173.912712 C 128.190907 174.915265 125.728855 175.795057 123.225882 176.552086 C 120.71609 177.315936 118.172196 177.950205 115.607843 178.468532 C 113.043489 178.973218 110.451855 179.355143 107.846581 179.614307 C 105.234487 179.86665 102.622393 179.996231 99.996659 180.003052 C 97.377745 180.003052 94.76565 179.87347 92.160376 179.614307 C 89.555102 179.355143 86.963468 178.973218 84.392295 178.461711 C 81.821121 177.950205 79.290868 177.315936 76.774255 176.558907 C 74.264462 175.795057 71.80241 174.915265 69.381279 173.912712 C 66.966967 172.903339 64.600396 171.791664 62.288386 170.557228 C 59.976376 169.322792 57.732566 167.979234 55.550138 166.519735 C 53.374529 165.067056 51.273942 163.498436 49.248376 161.841154 C 47.222809 160.183873 45.285904 158.42429 43.43084 156.569225 C 41.575775 154.714161 39.816192 152.777256 38.158911 150.751689 C 36.501629 148.726123 34.933008 146.625535 33.480329 144.449927 C 32.02083 142.267498 30.677273 140.023689 29.442837 137.711679 C 28.208401 135.399669 27.096726 133.033098 26.087353 130.618786 C 25.0848 128.197655 24.205008 125.735602 23.441158 123.22581 C 22.684128 120.709197 22.04986 118.178944 21.538353 115.60777 C 21.026847 113.036596 20.644922 110.444963 20.385758 107.839688 C 20.126595 105.234414 19.997013 102.62232 19.997013 100.003406 C 20.003833 97.377672 20.133415 94.765578 20.385758 92.153483 C 20.644922 89.548209 21.026847 86.956576 21.531533 84.392222 C 22.04986 81.827869 22.684128 79.283975 23.447978 76.774182 C 24.205008 74.27121 25.0848 71.809158 26.087353 69.388026 C 27.089906 66.966894 28.215221 64.600323 29.449657 62.288313 C 30.684093 59.976303 32.02765 57.732494 33.480329 55.556885 C 34.939829 53.374457 36.494809 51.273869 38.165731 49.248303 C 39.823012 47.222736 41.582595 45.285831 43.43084 43.437587 C 45.285904 41.582523 47.222809 39.82294 49.248376 38.165658 C 51.273942 36.494736 53.374529 34.939756 55.556958 33.480257 C 57.732566 32.027578 59.976376 30.68402 62.288386 29.449584 C 64.600396 28.215148 66.966967 27.089833 69.388099 26.08728 C 71.80923 25.084727 74.271283 24.204935 76.774255 23.447906 C 79.284048 22.684056 81.827941 22.049787 84.392295 21.53146 C 86.956648 21.026774 89.548282 20.644849 92.153556 20.385685 C 94.76565 20.133342 97.377745 20.003761 100.003479 19.99694 " stroke="#ffffff" stroke-width="20" stroke-opacity="1" stroke-miterlimit="4"/><path stroke-linecap="square" transform="matrix(0.286378, 0.286378, -0.286378, 0.286378, 94.115214, 130.411837)" fill="none" stroke-linejoin="miter" d="M 134.997356 100.003406 C 135.051917 101.190102 135.051917 102.376797 134.983716 103.577133 C 134.915515 104.763828 134.792754 105.950524 134.608611 107.130399 C 134.417649 108.303455 134.178946 109.46969 133.872042 110.622285 C 133.565137 111.77488 133.196853 112.907015 132.780827 114.018689 C 132.357982 115.137184 131.880575 116.228398 131.348609 117.292332 C 130.809821 118.363086 130.223294 119.39974 129.589026 120.402293 C 128.947937 121.411666 128.259108 122.386939 127.522539 123.314471 C 126.785969 124.255643 126.001659 125.149075 125.169608 126.008406 C 124.337557 126.867737 123.464585 127.672508 122.557514 128.443178 C 121.643622 129.207028 120.688809 129.929957 119.706716 130.598326 C 118.717803 131.273515 117.69479 131.887323 116.651316 132.45339 C 115.607843 133.019458 114.523449 133.530964 113.425414 133.98791 C 112.32056 134.438036 111.195245 134.840421 110.06311 135.181426 C 108.917335 135.52243 107.75792 135.808874 106.584865 136.027117 C 105.41863 136.25218 104.231934 136.415862 103.052059 136.518163 C 101.858543 136.620465 100.671848 136.661385 99.478332 136.640925 C 98.284816 136.620465 97.098121 136.538624 95.911425 136.402222 C 94.73155 136.259 93.551675 136.061217 92.392259 135.802054 C 91.226024 135.53607 90.080249 135.222346 88.948114 134.840421 C 87.8228 134.465316 86.711125 134.035651 85.626731 133.537784 C 84.535517 133.046738 83.478403 132.507951 82.448569 131.900963 C 81.418736 131.307615 80.423003 130.652887 79.45455 129.957238 C 78.492918 129.254768 77.565386 128.504559 76.671954 127.706608 C 75.785342 126.915478 74.939651 126.069787 74.141701 125.189995 C 73.33693 124.303384 72.586721 123.389492 71.870611 122.427859 C 71.168142 121.466227 70.506593 120.477314 69.899605 119.44748 C 69.299438 118.424467 68.74701 117.367353 68.249144 116.282959 C 67.751277 115.198565 67.301151 114.09371 66.919226 112.961575 C 66.530481 111.836261 66.203117 110.690486 65.943954 109.531071 C 65.67115 108.371655 65.459727 107.19178 65.316506 106.011905 C 65.159643 104.832029 65.077802 103.645334 65.043702 102.451818 C 65.023242 101.258302 65.050522 100.071607 65.152823 98.878091 C 65.248305 97.691396 65.391527 96.51152 65.609769 95.338465 C 65.828012 94.16541 66.100816 93.005995 66.435 91.86704 C 66.769185 90.714445 67.15793 89.58913 67.608055 88.484275 C 68.058181 87.379421 68.562868 86.301847 69.115295 85.244733 C 69.674542 84.194439 70.288351 83.171426 70.949899 82.182513 C 71.611448 81.1936 72.327557 80.231968 73.091407 79.318076 C 73.848437 78.397364 74.653208 77.524392 75.505719 76.685521 C 76.35141 75.85347 77.244841 75.05552 78.172374 74.31895 C 79.106726 73.575561 80.068358 72.873091 81.077732 72.232003 C 82.080285 71.584095 83.110118 70.990747 84.174052 70.44514 C 85.237986 69.913173 86.32238 69.428946 87.434055 68.999281 C 88.552549 68.562795 89.684684 68.19451 90.830459 67.880786 C 91.976234 67.567062 93.142469 67.314719 94.322345 67.116936 C 95.4954 66.925974 96.682095 66.789572 97.875611 66.714551 C 99.055486 66.63953 100.255822 66.62589 101.442518 66.680451 C 102.629213 66.721371 103.815909 66.830492 104.995784 67.000995 " stroke="#ffffff" stroke-width="20" stroke-opacity="1" stroke-miterlimit="4"/></g></svg>