<svg xmlns="http://www.w3.org/2000/svg" xmlns:xlink="http://www.w3.org/1999/xlink" width="108" zoomAndPan="magnify" viewBox="0 0 81 80.999996" height="108" preserveAspectRatio="xMidYMid meet" version="1.0"><defs><clipPath id="61adf4e77f"><path d="M 0 0.0117188 L 81 0.0117188 L 81 81 L 0 81 Z M 0 0.0117188 " clip-rule="nonzero"/></clipPath></defs><path stroke-linecap="square" transform="matrix(0.286378, 0.286378, -0.286378, 0.286378, 40.499998, -16.775648)" fill="none" stroke-linejoin="miter" d="M 179.99966 100.000006 C 179.99966 102.618921 179.870078 105.231015 179.617735 107.843109 C 179.358572 110.448383 178.976647 113.040017 178.46514 115.611191 C 177.946813 118.175544 177.319365 120.712618 176.555515 123.222411 C 175.791665 125.732203 174.911873 128.194256 173.90932 130.615387 C 172.906767 133.036519 171.788272 135.39627 170.553836 137.70828 C 169.3194 140.020291 167.975843 142.2641 166.516343 144.446529 C 165.063664 146.622137 163.501864 148.729545 161.837762 150.748291 C 160.18048 152.773858 158.420897 154.710763 156.565833 156.565827 C 154.710769 158.420891 152.773863 160.180475 150.748297 161.837756 C 148.72955 163.501858 146.622143 165.063658 144.446534 166.516338 C 142.264106 167.975837 140.020296 169.319394 137.708286 170.55383 C 135.396276 171.788267 133.036525 172.906761 130.615393 173.909314 C 128.194262 174.911867 125.732209 175.791659 123.222416 176.555509 C 120.712624 177.319359 118.17555 177.946807 115.611197 178.465134 C 113.040023 178.976641 110.448389 179.358566 107.843115 179.617729 C 105.231021 179.870072 102.618927 179.999654 100.000012 179.999654 C 97.381098 179.999654 94.769004 179.870072 92.15691 179.617729 C 89.551636 179.358566 86.960002 178.976641 84.388828 178.465134 C 81.824474 177.946807 79.287401 177.319359 76.777608 176.555509 C 74.267815 175.791659 71.805763 174.911867 69.384631 173.909314 C 66.9635 172.906761 64.603749 171.788267 62.291739 170.55383 C 59.979728 169.319394 57.735919 167.975837 55.55349 166.516338 C 53.377882 165.063658 51.270474 163.501858 49.251728 161.837756 C 47.226161 160.180475 45.289256 158.420891 43.434192 156.565827 C 41.579127 154.710763 39.819544 152.773858 38.162263 150.748291 C 36.498161 148.729545 34.93636 146.622137 33.483681 144.446529 C 32.024182 142.2641 30.680625 140.020291 29.446189 137.70828 C 28.211752 135.39627 27.093258 133.036519 26.090705 130.615387 C 25.088151 128.194256 24.20836 125.732203 23.44451 123.222411 C 22.68066 120.712618 22.053212 118.175544 21.534885 115.611191 C 21.023378 113.040017 20.641453 110.448383 20.38229 107.843109 C 20.129947 105.231015 20.000365 102.618921 20.000365 100.000006 C 20.000365 97.381092 20.129947 94.768998 20.38229 92.156904 C 20.641453 89.55163 21.023378 86.959996 21.534885 84.388822 C 22.053212 81.824468 22.68066 79.287395 23.44451 76.777602 C 24.20836 74.26781 25.088151 71.805757 26.090705 69.384626 C 27.093258 66.963494 28.211752 64.603743 29.446189 62.291733 C 30.680625 59.979722 32.024182 57.735913 33.483681 55.553484 C 34.93636 53.377876 36.498161 51.270468 38.162263 49.251722 C 39.819544 47.226155 41.579127 45.28925 43.434192 43.434186 C 45.289256 41.579121 47.226161 39.819538 49.251728 38.162257 C 51.270474 36.498155 53.377882 34.936355 55.55349 33.483675 C 57.735919 32.024176 59.979728 30.680619 62.291739 29.446183 C 64.603749 28.211746 66.9635 27.093252 69.384631 26.090699 C 71.805763 25.088146 74.267815 24.208354 76.777608 23.444504 C 79.287401 22.680654 81.824474 22.053206 84.388828 21.534879 C 86.960002 21.023372 89.551636 20.641447 92.15691 20.382284 C 94.769004 20.129941 97.381098 20.000359 100.000012 20.000359 " stroke="#f86f21" stroke-width="20" stroke-opacity="1" stroke-miterlimit="4"/><path stroke-linecap="square" transform="matrix(0.286378, 0.286378, -0.286378, 0.286378, 40.499998, -16.775648)" fill="none" stroke-linejoin="miter" d="M 135.000711 100.000006 C 135.055271 101.186702 135.048451 102.380218 134.987071 103.573733 C 134.91887 104.760429 134.796108 105.947124 134.611966 107.127 C 134.421003 108.300055 134.17548 109.473111 133.868576 110.625706 C 133.561672 111.778301 133.200207 112.903615 132.777362 114.02211 C 132.354516 115.140605 131.87711 116.231819 131.345143 117.295753 C 130.813176 118.359687 130.226648 119.39634 129.58556 120.405714 C 128.944471 121.415087 128.262462 122.38354 127.519073 123.317892 C 126.782503 124.259064 125.998193 125.152496 125.166142 126.011827 C 124.340911 126.864338 123.46112 127.675929 122.554048 128.446599 C 121.640156 129.210449 120.692163 129.926558 119.70325 130.601747 C 118.721158 131.270116 117.698144 131.883924 116.65467 132.449991 C 115.604377 133.022879 114.526803 133.527566 113.428768 133.984512 C 112.317094 134.441457 111.198599 134.837023 110.059644 135.184847 C 108.913869 135.525852 107.761274 135.805475 106.588219 136.023718 C 105.415163 136.255601 104.235288 136.412463 103.048592 136.521585 C 101.861897 136.617066 100.668381 136.664807 99.474866 136.644346 C 98.28135 136.623886 97.094654 136.542045 95.914779 136.398823 C 94.728083 136.262421 93.555028 136.057819 92.395613 135.798655 C 91.222557 135.539492 90.083603 135.218948 88.944648 134.843843 C 87.819333 134.468738 86.714478 134.032252 85.623264 133.541206 C 84.53205 133.050159 83.481756 132.504552 82.445103 131.904384 C 81.422089 131.304216 80.419536 130.656308 79.457903 129.953839 C 78.489451 129.25819 77.561919 128.50798 76.675307 127.703209 C 75.788695 126.912079 74.943004 126.066388 74.138234 125.193416 C 73.333463 124.306805 72.583253 123.392913 71.873964 122.42446 C 71.164675 121.469648 70.509946 120.473915 69.902958 119.444081 C 69.30279 118.421068 68.743543 117.370774 68.245677 116.28638 C 67.74781 115.201986 67.304504 114.090311 66.915759 112.964996 C 66.533834 111.832861 66.20647 110.687086 65.940486 109.534491 C 65.674503 108.368256 65.45626 107.195201 65.313038 106.015325 C 65.162996 104.82863 65.074335 103.648754 65.047055 102.448419 C 65.019774 101.261723 65.053875 100.068207 65.149356 98.881512 C 65.244837 97.694816 65.394879 96.508121 65.613122 95.335065 C 65.824545 94.16883 66.104169 93.002595 66.438353 91.86364 C 66.765717 90.717865 67.154462 89.59255 67.604588 88.487696 C 68.054714 87.382841 68.559401 86.305267 69.111828 85.248153 C 69.677895 84.191039 70.284883 83.174846 70.953252 82.179113 C 71.614801 81.1902 72.32409 80.235388 73.08794 79.321496 C 73.84497 78.400784 74.656561 77.520992 75.502252 76.688941 C 76.354763 75.85007 77.241374 75.05894 78.175727 74.31555 C 79.110079 73.57216 80.071711 72.869691 81.081085 72.228603 C 82.076818 71.587514 83.113471 70.987347 84.170585 70.44856 C 85.241339 69.909772 86.325733 69.425546 87.437408 68.995881 C 88.549082 68.566215 89.681217 68.19793 90.833812 67.877386 C 91.979587 67.563662 93.145823 67.311318 94.318878 67.120356 C 95.498753 66.922573 96.678629 66.792992 97.872145 66.717971 C 99.05884 66.63613 100.252356 66.62931 101.445871 66.67705 C 102.632567 66.717971 103.819262 66.827092 104.999138 66.997594 " stroke="#f86f21" stroke-width="20" stroke-opacity="1" stroke-miterlimit="4"/><g clip-path="url(#61adf4e77f)"><path stroke-linecap="square" transform="matrix(0.286378, 0.286378, -0.286378, 0.286378, 40.499998, -16.765373)" fill="none" stroke-linejoin="miter" d="M 180.002179 100.002526 C 180.002179 102.62144 179.872598 105.233534 179.613434 107.838808 C 179.361091 110.450903 178.972346 113.035716 178.460839 115.60689 C 177.949332 118.178064 177.321884 120.715137 176.558034 123.22493 C 175.794184 125.734723 174.914393 128.196775 173.911839 130.617907 C 172.909286 133.039038 171.790792 135.398789 170.556356 137.7108 C 169.321919 140.02281 167.978362 142.266619 166.518863 144.449048 C 165.066184 146.624656 163.497563 148.725244 161.840281 150.75081 C 160.183 152.776377 158.423417 154.713282 156.568352 156.568346 C 154.713288 158.423411 152.776383 160.182994 150.750816 161.840275 C 148.72525 163.497557 146.624662 165.066178 144.449054 166.518857 C 142.266625 167.978356 140.022816 169.321913 137.710805 170.55635 C 135.398795 171.790786 133.039044 172.90928 130.617913 173.911834 C 128.196781 174.914387 125.734729 175.794178 123.224936 176.558028 C 120.715143 177.321878 118.17807 177.949326 115.606896 178.460833 C 113.035722 178.97234 110.450908 179.361085 107.838814 179.613428 C 105.23354 179.872592 102.621446 180.002173 100.002532 180.002173 C 97.383617 180.002173 94.771523 179.872592 92.159429 179.620248 C 89.554155 179.361085 86.962521 178.97916 84.391347 178.467653 C 81.826994 177.949326 79.2831 177.315058 76.780128 176.558028 C 74.270335 175.794178 71.808282 174.914387 69.387151 173.911834 C 66.966019 172.90928 64.599448 171.783966 62.287438 170.54953 C 59.975427 169.315093 57.731618 167.971536 55.55601 166.518857 C 53.373581 165.059358 51.272994 163.504377 49.254247 161.840275 C 47.22186 160.176174 45.284955 158.416591 43.436711 156.568346 C 41.581647 154.713282 39.822064 152.776377 38.164782 150.75081 C 36.49386 148.725244 34.93888 146.624656 33.479381 144.442228 C 32.026702 142.266619 30.683144 140.02281 29.448708 137.7108 C 28.214272 135.398789 27.088957 133.032218 26.086404 130.611087 C 25.090671 128.196775 24.204059 125.727903 23.447029 123.22493 C 22.683179 120.715137 22.048911 118.171244 21.537404 115.61371 C 21.025897 113.042536 20.643972 110.450903 20.384809 107.845628 C 20.132466 105.233534 20.002884 102.62144 20.002884 100.002526 C 20.002884 97.383611 20.125646 94.764697 20.384809 92.159423 C 20.643972 89.554149 21.025897 86.962515 21.537404 84.391341 C 22.048911 81.820168 22.683179 79.289915 23.447029 76.780122 C 24.210879 74.270329 25.090671 71.808277 26.093224 69.387145 C 27.095777 66.966013 28.207451 64.599442 29.441888 62.287432 C 30.683144 59.982242 32.026702 57.738432 33.486201 55.556004 C 34.93888 53.380395 36.50068 51.272988 38.157962 49.247421 C 39.822064 47.228675 41.574827 45.284949 43.429891 43.429885 C 45.284955 41.574821 47.228681 39.822058 49.247427 38.157956 C 51.272994 36.500674 53.380401 34.938874 55.55601 33.486195 C 57.738438 32.026696 59.982248 30.683138 62.287438 29.441882 C 64.599448 28.207446 66.966019 27.095771 69.387151 26.093218 C 71.808282 25.090665 74.270335 24.210873 76.780128 23.447023 C 79.28992 22.683173 81.820174 22.048905 84.391347 21.537398 C 86.962521 21.025892 89.554155 20.643967 92.159429 20.384803 C 94.764703 20.12564 97.383617 20.002878 100.002532 20.002878 " stroke="#f86f21" stroke-width="20" stroke-opacity="1" stroke-miterlimit="4"/><path stroke-linecap="square" transform="matrix(0.286378, 0.286378, -0.286378, 0.286378, 40.499998, -16.765373)" fill="none" stroke-linejoin="miter" d="M 135.00323 100.002526 C 135.057791 101.189221 135.050971 102.382737 134.98277 103.569432 C 134.921389 104.762948 134.791807 105.942824 134.607665 107.122699 C 134.423522 108.302574 134.171179 109.46881 133.864275 110.621405 C 133.557371 111.774 133.202726 112.906135 132.779881 114.024629 C 132.357035 115.143124 131.879629 116.234338 131.347662 117.298272 C 130.815695 118.362206 130.229167 119.39886 129.588079 120.408233 C 128.946991 121.417606 128.258162 122.379239 127.521592 123.320411 C 126.778202 124.254763 126.000712 125.155015 125.168661 126.014346 C 124.33661 126.860037 123.463639 127.678448 122.549747 128.442298 C 121.642675 129.212968 120.694683 129.929078 119.70577 130.604266 C 118.716857 131.265815 117.700663 131.886443 116.65719 132.452511 C 115.600076 133.018578 114.529322 133.530085 113.424467 133.980211 C 112.319613 134.443977 111.201118 134.839542 110.055343 135.180546 C 108.916388 135.528371 107.756973 135.801175 106.590738 136.026237 C 105.410862 136.2513 104.237807 136.414983 103.044291 136.517284 C 101.864416 136.619585 100.66408 136.660506 99.477385 136.646866 C 98.283869 136.626405 97.097174 136.544564 95.917298 136.401342 C 94.730603 136.264941 93.557547 136.060338 92.391312 135.794354 C 91.225077 135.542011 90.086122 135.221467 88.947167 134.846362 C 87.815032 134.464437 86.710178 134.027951 85.625783 133.543725 C 84.534569 133.052679 83.477455 132.500251 82.447622 131.906904 C 81.417788 131.299916 80.415235 130.652007 79.453603 129.949538 C 78.48515 129.253889 77.557618 128.503679 76.677826 127.705728 C 75.791215 126.914598 74.945524 126.068907 74.140753 125.195936 C 73.335982 124.309324 72.578953 123.388612 71.876483 122.426979 C 71.167194 121.472167 70.512465 120.476434 69.905478 119.4466 C 69.29849 118.416767 68.739242 117.366473 68.241376 116.282079 C 67.743509 115.197685 67.307023 114.09283 66.918278 112.967516 C 66.536353 111.835381 66.208989 110.689606 65.936186 109.53019 C 65.670202 108.363955 65.458779 107.19772 65.308737 106.011024 C 65.165515 104.831149 65.070034 103.644453 65.049574 102.450938 C 65.015473 101.257422 65.056394 100.070727 65.145055 98.877211 C 65.240536 97.690515 65.397398 96.51064 65.615641 95.337585 C 65.827064 94.171349 66.106688 93.005114 66.434052 91.859339 C 66.768236 90.720384 67.156982 89.595069 67.607107 88.490215 C 68.057233 87.385361 68.5551 86.300966 69.114347 85.250673 C 69.680415 84.193559 70.287403 83.177365 70.955771 82.181632 C 71.61732 81.192719 72.326609 80.237907 73.083639 79.317195 C 73.847489 78.403303 74.65226 77.516691 75.504771 76.69146 C 76.357282 75.852589 77.243894 75.061459 78.178246 74.318069 C 79.105778 73.56786 80.074231 72.87221 81.076784 72.224302 C 82.072517 71.583214 83.115991 70.989866 84.173104 70.451079 C 85.237038 69.905472 86.321432 69.421245 87.433107 68.99158 C 88.544782 68.561914 89.676916 68.193629 90.836332 67.879905 C 91.982107 67.566181 93.148342 67.313838 94.314577 67.116055 C 95.494453 66.918273 96.674328 66.788691 97.867844 66.71367 C 99.061359 66.638649 100.248055 66.625009 101.44157 66.672749 C 102.635086 66.72049 103.821782 66.829611 105.001657 67.000114 " stroke="#f86f21" stroke-width="20" stroke-opacity="1" stroke-miterlimit="4"/></g></svg>