<svg width="24" height="24" viewBox="0 0 24 24" fill="none" xmlns="http://www.w3.org/2000/svg">
<path d="M24 11.9616C24 5.35538 18.6274 0 12 0C5.37258 0 0 5.35538 0 11.9616C0 17.9319 4.38823 22.8805 10.125 23.7778V15.4192H7.07812V11.9616H10.125V9.32629C10.125 6.32842 11.9165 4.67249 14.6576 4.67249C15.9705 4.67249 17.3438 4.90611 17.3438 4.90611V7.84978H15.8306C14.3399 7.84978 13.875 8.77182 13.875 9.71778V11.9616H17.2031L16.6711 15.4192H13.875V23.7778C19.6118 22.8805 24 17.9319 24 11.9616Z" fill="#1877F2"/>
<path d="M16.6635 15.4595L17.1933 11.987H13.8793V9.73358C13.8793 8.78356 14.3422 7.85756 15.8265 7.85756H17.3333V4.90125C17.3333 4.90125 15.9659 4.66663 14.6585 4.66663C11.9291 4.66663 10.1451 6.32966 10.1451 9.34041V11.987H7.11111V15.4595H10.1451V23.854C11.3823 24.0486 12.6421 24.0486 13.8793 23.854V15.4595H16.6635Z" fill="white"/>
</svg>
