<svg width="108" height="108" viewBox="0 0 108 108" fill="none" xmlns="http://www.w3.org/2000/svg">
<mask id="mask0_690_351" style="mask-type:luminance" maskUnits="userSpaceOnUse" x="0" y="0" width="108" height="108">
<path d="M107.333 0.666992V107.333H0.666992V0.666992H107.333Z" fill="white" stroke="white" stroke-width="1.33333"/>
</mask>
<g mask="url(#mask0_690_351)">
<path d="M84.5514 84.547C83.5462 85.547 82.4993 86.4949 81.4056 87.3959C80.3118 88.2918 79.1764 89.1355 78.0045 89.922C76.8275 90.7032 75.6139 91.4324 74.3639 92.099C73.1191 92.7657 71.8431 93.3699 70.5358 93.9115C69.2285 94.4532 67.8952 94.9272 66.541 95.3386C65.1868 95.7501 63.8171 96.0938 62.4316 96.3699C61.041 96.6459 59.6452 96.8543 58.2337 96.9897C56.8275 97.1303 55.416 97.198 53.9993 97.198C52.5879 97.198 51.1764 97.1303 49.7702 96.9897C48.3587 96.8543 46.9629 96.6459 45.5723 96.3699C44.1869 96.0938 42.8171 95.7501 41.4629 95.3386C40.1087 94.9272 38.7754 94.4532 37.4681 93.9115C36.1608 93.3699 34.8848 92.7657 33.64 92.099C32.39 91.4324 31.1764 90.7032 29.9994 89.922C28.8275 89.1355 27.6921 88.2918 26.5983 87.3959C25.5046 86.4949 24.4577 85.547 23.4525 84.547C22.4525 83.547 21.5046 82.5001 20.6087 81.4063C19.7129 80.3126 18.8692 79.1772 18.0827 78.0001C17.2962 76.823 16.5723 75.6147 15.9004 74.3647C15.2337 73.1147 14.6296 71.8386 14.0879 70.5314C13.5515 69.2241 13.0723 67.8959 12.6608 66.5418C12.2494 65.1876 11.9056 63.8178 11.6296 62.4272C11.3535 61.0418 11.1504 59.6407 11.0098 58.2345C10.8692 56.8282 10.8015 55.4168 10.8015 54.0001C10.8015 52.5835 10.8692 51.172 11.0098 49.7657C11.1504 48.3595 11.3536 46.9585 11.6296 45.573C11.9056 44.1824 12.2494 42.8126 12.6608 41.4585C13.0723 40.1043 13.5515 38.7762 14.0879 37.4689C14.6296 36.1616 15.2338 34.8855 15.9004 33.6355C16.5723 32.3855 17.2963 31.1772 18.0827 30.0001C18.8692 28.8231 19.7129 27.6876 20.6087 26.5939C21.5046 25.5001 22.4525 24.4533 23.4525 23.4533C24.4577 22.4533 25.5046 21.5053 26.5983 20.6043C27.6921 19.7085 28.8275 18.8647 29.9994 18.0783C31.1765 17.297 32.39 16.5679 33.64 15.9012C34.8848 15.2345 36.1608 14.6304 37.4681 14.0887C38.7754 13.547 40.1087 13.0731 41.4629 12.6616C42.8171 12.2501 44.1869 11.9064 45.5723 11.6304C46.9629 11.3543 48.3587 11.146 49.7702 11.0106C51.1764 10.8699 52.5879 10.8022 53.9993 10.8022C55.416 10.8022 56.8275 10.8699 58.2337 11.0106C59.6452 11.146 61.041 11.3543 62.4316 11.6304C63.817 11.9064 65.1868 12.2501 66.541 12.6616C67.8952 13.0731 69.2285 13.547 70.5358 14.0887C71.8431 14.6304 73.1191 15.2345 74.3639 15.9012C75.6139 16.5679 76.8275 17.297 78.0045 18.0783C79.1764 18.8647 80.3118 19.7085 81.4056 20.6043C82.4993 21.5053 83.5462 22.4533 84.5514 23.4533" stroke="white" stroke-width="10.8" stroke-linecap="square"/>
<path d="M67.3654 67.3645C66.9331 67.8385 66.48 68.2916 65.9956 68.7239C65.5164 69.151 65.0164 69.5572 64.4956 69.9374C63.9748 70.3124 63.4383 70.6666 62.881 70.9895C62.3237 71.3124 61.7508 71.6041 61.1675 71.8697C60.5789 72.1353 59.98 72.3697 59.3706 72.5728C58.756 72.776 58.1362 72.9478 57.5112 73.0885C56.881 73.2291 56.2456 73.3385 55.6102 73.4114C54.9696 73.4895 54.3289 73.5312 53.6831 73.5416C53.0373 73.552 52.3966 73.526 51.756 73.4739C51.1154 73.4166 50.4748 73.328 49.8446 73.2083C49.2092 73.0885 48.5842 72.9322 47.9696 72.7499C47.355 72.5676 46.7456 72.3489 46.1519 72.1041C45.5581 71.8541 44.9748 71.578 44.4123 71.276C43.8446 70.9687 43.2925 70.6353 42.7612 70.2708C42.23 69.9114 41.7144 69.5208 41.2248 69.1093C40.73 68.6926 40.2612 68.2551 39.8133 67.7916C39.3654 67.328 38.9435 66.8437 38.5425 66.3385C38.1467 65.8333 37.7717 65.3072 37.4279 64.7655C37.0842 64.2187 36.7664 63.6614 36.48 63.0833C36.1935 62.5103 35.9331 61.9218 35.7092 61.3176C35.48 60.7135 35.2821 60.1041 35.1206 59.4791C34.9539 58.8593 34.8237 58.2291 34.7196 57.5937C34.6206 56.9583 34.5529 56.3176 34.5165 55.6718C34.48 55.0312 34.48 54.3853 34.5112 53.7447C34.5425 53.0989 34.605 52.4635 34.6987 51.8228C34.7977 51.1874 34.9227 50.5572 35.0842 49.9322C35.2456 49.3124 35.4383 48.6979 35.6623 48.0937C35.8862 47.4895 36.1362 46.8958 36.4227 46.3176C36.704 45.7395 37.0165 45.177 37.3602 44.6354C37.6987 44.0885 38.0685 43.5572 38.4644 43.052C38.855 42.5416 39.2769 42.0572 39.7196 41.5885C40.1675 41.1249 40.631 40.6822 41.1258 40.2656C41.6154 39.8489 42.1206 39.4531 42.6519 39.0885C43.1831 38.7239 43.73 38.3854 44.2925 38.0781C44.8602 37.7656 45.4383 37.4843 46.0321 37.2343C46.6258 36.9843 47.23 36.7656 47.8446 36.5729C48.4591 36.3854 49.0842 36.2291 49.7144 36.1041C50.3446 35.9791 50.9852 35.8854 51.6258 35.8281C52.2664 35.7656 52.9071 35.7395 53.5529 35.7447C54.1935 35.7499 54.8394 35.7864 55.4748 35.8593C56.1154 35.9322 56.7508 36.0312 57.381 36.1718C58.0112 36.3072 58.631 36.4739 59.2456 36.6718C59.855 36.8749 60.4539 37.1041 61.0425 37.3645C61.6362 37.6249 62.2091 37.9166 62.7664 38.2343C63.3237 38.552 63.8654 38.901 64.3914 39.276C64.9123 39.651 65.4175 40.052 65.9018 40.4791C66.381 40.901 66.8446 41.3541 67.2768 41.8281C67.7143 42.2968 68.1258 42.7916 68.5112 43.3072" stroke="white" stroke-width="10.8" stroke-linecap="square"/>
</g>
</svg>
